<svg width="55" height="52" viewBox="0 0 55 52" fill="none" xmlns="http://www.w3.org/2000/svg">
<path d="M31.825 0.625L29.125 3.325L33.125 7.325C33.675 7.95 33.95 8.675 33.95 9.5C33.95 10.325 33.675 11.1 33.125 11.65L24.25 20.675L26.75 23.375L35.825 14.35C37.15 12.875 37.8 11.25 37.8 9.5C37.8 7.75 37.15 6.1 35.825 4.625L31.825 0.625ZM21.875 5.675L19.175 8.375L20.7 9.775C21.25 10.325 21.525 11.075 21.525 12C21.525 12.925 21.25 13.675 20.7 14.225L19.175 15.625L21.875 18.325L23.275 16.8C24.6 15.325 25.275 13.725 25.275 12C25.275 10.2 24.6 8.575 23.275 7.075L21.875 5.675ZM48 9.65C46.275 9.65 44.675 10.325 43.2 11.65L29.125 25.75L31.825 28.25L45.775 14.35C46.4 13.725 47.15 13.4 48 13.4C48.85 13.4 49.6 13.725 50.225 14.35L51.75 15.875L54.325 13.175L52.925 11.65C51.45 10.325 49.8 9.65 48 9.65ZM13 17L0.5 52L35.5 39.5L13 17ZM43 24.65C41.25 24.65 39.65 25.325 38.15 26.65L34.175 30.625L36.875 33.325L40.85 29.35C41.475 28.725 42.175 28.4 43 28.4C43.825 28.4 44.575 28.725 45.2 29.35L49.25 33.325L51.875 30.75L47.875 26.65C46.4 25.325 44.75 24.65 43 24.65Z" fill="white"/>
</svg>
