<svg width="61" height="50" viewBox="0 0 61 50" fill="none" xmlns="http://www.w3.org/2000/svg">
<path d="M58 22.5H45.5C44.837 22.5 44.2011 22.7634 43.7322 23.2322C43.2634 23.7011 43 24.337 43 25V47.5C43 48.163 43.2634 48.7989 43.7322 49.2678C44.2011 49.7366 44.837 50 45.5 50H58C58.663 50 59.2989 49.7366 59.7678 49.2678C60.2366 48.7989 60.5 48.163 60.5 47.5V25C60.5 24.337 60.2366 23.7011 59.7678 23.2322C59.2989 22.7634 58.663 22.5 58 22.5ZM58 45H45.5V27.5H58V45ZM50.5 0H5.5C2.725 0 0.5 2.225 0.5 5V35C0.5 36.3261 1.02678 37.5979 1.96447 38.5355C2.90215 39.4732 4.17392 40 5.5 40H23V45H18V50H38V45H33V40H38V35H5.5V5H50.5V17.5H55.5V5C55.5 3.67392 54.9732 2.40215 54.0355 1.46447C53.0979 0.526784 51.8261 0 50.5 0Z" fill="white"/>
</svg>
