<svg width="56" height="47" viewBox="0 0 56 47" fill="none" xmlns="http://www.w3.org/2000/svg">
<path d="M19.625 17.5L16.875 11.5L10.875 8.75L16.875 6L19.625 0L22.375 6L28.375 8.75L22.375 11.5L19.625 17.5ZM35.875 25L33.5 19.875L28.375 17.5L33.5 15.125L35.875 10L38.25 15.125L43.375 17.5L38.25 19.875L35.875 25ZM8.375 30L6 24.875L0.875 22.5L6 20.125L8.375 15L10.75 20.125L15.875 22.5L10.75 24.875L8.375 30ZM9.625 46.25L5.875 42.5L24.625 23.75L34.625 33.75L52.375 13.8125L55.875 17.3125L34.625 41.25L24.625 31.25L9.625 46.25Z" fill="white"/>
</svg>
