<svg width="51" height="46" viewBox="0 0 51 46" fill="none" xmlns="http://www.w3.org/2000/svg">
<path d="M28 33H23C21.625 33 20.5 31.875 20.5 30.5H3.025V40.5C3.025 43.25 5.275 45.5 8.025 45.5H43C45.75 45.5 48 43.25 48 40.5V30.5H30.5C30.5 31.875 29.375 33 28 33ZM45.5 10.5H35.5C35.5 4.975 31.025 0.5 25.5 0.5C19.975 0.5 15.5 4.975 15.5 10.5H5.5C2.75 10.5 0.5 12.75 0.5 15.5V23C0.5 25.775 2.725 28 5.5 28H20.5V25.5C20.5 24.125 21.625 23 23 23H28C29.375 23 30.5 24.125 30.5 25.5V28H45.5C48.25 28 50.5 25.75 50.5 23V15.5C50.5 12.75 48.25 10.5 45.5 10.5ZM20.5 10.5C20.5 7.75 22.75 5.5 25.5 5.5C28.25 5.5 30.5 7.75 30.5 10.5H20.475H20.5Z" fill="white"/>
</svg>
